<svg xmlns="http://www.w3.org/2000/svg" viewBox="0 0 400 400"><rect width="400" height="400" fill="#F3DDBE"/><g><path d="M40 210c0-34 30-52 70-52h180c40 0 70 18 70 52v8H40z" fill="#E1A04A"/><g stroke="#B9782C" stroke-width="7" stroke-linecap="round"><path d="M110 172l22 22M170 168l22 22M230 168l22 22M290 172l22 22"/></g><path d="M44 218h312l-14 20H58z" fill="#5BAE3C"/><path d="M48 232h304c-2 8-10 14-20 14H68c-10 0-18-6-20-14z" fill="#7A4424"/><path d="M58 244h284c-6 22-28 34-56 34H114c-28 0-50-12-56-34z" fill="#E1A04A"/><path d="M60 236c30 10 60-6 90 4s60-6 90 4 60-6 90 4" stroke="#FFC530" stroke-width="6" fill="none" stroke-linecap="round"/></g></svg>
